# xmcd
#
# Track frame offsets: 
#        150
#        13834
#        28772
#        38369
#        58659
#        79910
#        90764
#        104538
#        123593
#        139658
#        162253
#        179050
#        193465
#        209108
#        229349
#        247699
#        282324
#
# Disc length: 4097 seconds
#
# Revision: 0
# Processed by: cddbd v1.5.2PL0 Copyright (c) Steve Scherf et al.
# Submitted via: ExactAudioCopy v0.99pb4
#
DISCID=f30fff11
DTITLE=Deke Dickerson and The Modern Sounds - Live at Duff's
DYEAR=2010
DGENRE=Country
TTITLE0=Intro and Mexicali Rose
TTITLE1=Snatch It and Grab It
TTITLE2=Early American
TTITLE3=Run Red Run
TTITLE4=I'm A Lover Not A Fighter
TTITLE5=There Ain't No Grave Deep Enough
TTITLE6=Good Time Gal
TTITLE7=Misshapen Hillbilly Gal
TTITLE8=I'll Go Down Swinging
TTITLE9=Honky Tonk Night Time Man
TTITLE10=Make Way For A Better Man
TTITLE11=End Of The Road
TTITLE12=Lover Come Back To Me
TTITLE13=Hello Darlin'
TTITLE14=I Never Cared For You
TTITLE15=El Cumbanchero
TTITLE16=Muleskinner Blues
EXTD=
EXTT0=
EXTT1=
EXTT2=
EXTT3=
EXTT4=
EXTT5=
EXTT6=
EXTT7=
EXTT8=
EXTT9=
EXTT10=
EXTT11=
EXTT12=
EXTT13=
EXTT14=
EXTT15=
EXTT16=
PLAYORDER=
